<?xml version="1.0" standalone="no"?>
<!DOCTYPE svg PUBLIC "-//W3C//DTD SVG 20010904//EN"
 "http://www.w3.org/TR/2001/REC-SVG-20010904/DTD/svg10.dtd">
<svg version="1.0" xmlns="http://www.w3.org/2000/svg"
 width="760.000000pt" height="760.000000pt" viewBox="0 0 760.000000 760.000000"
 preserveAspectRatio="xMidYMid meet">
<metadata>
Created by potrace 1.11, written by Peter Selinger 2001-2013
</metadata>
<g transform="translate(0.000000,760.000000) scale(0.100000,-0.100000)"
fill="#000000" stroke="none">
<path d="M3569 7595 c-2 -1 -42 -6 -89 -9 -86 -7 -101 -9 -199 -21 -45 -5
-127 -20 -291 -51 -124 -24 -419 -113 -585 -178 -100 -39 -96 -37 -255 -114
-1001 -482 -1742 -1381 -2025 -2457 -19 -71 -37 -146 -40 -165 -3 -19 -10 -51
-15 -70 -11 -44 -47 -300 -57 -411 -10 -111 -10 -507 0 -634 8 -101 10 -113
21 -195 9 -62 23 -148 31 -190 6 -28 12 -61 20 -104 73 -380 281 -884 512
-1241 49 -75 48 -74 112 -165 155 -219 400 -489 596 -655 39 -33 72 -63 75
-66 14 -16 226 -173 295 -219 44 -29 92 -61 107 -71 15 -11 32 -19 38 -19 5 0
10 -4 10 -10 0 -5 5 -10 10 -10 6 0 27 -11 48 -24 21 -13 94 -53 162 -89 374
-196 822 -338 1245 -393 22 -3 51 -7 64 -9 190 -31 718 -26 946 9 22 3 56 8
76 10 134 17 445 91 609 146 273 92 550 220 780 360 101 61 336 225 392 272
14 13 45 39 69 58 139 114 338 311 481 478 45 51 210 272 250 332 325 497 527
1031 603 1600 8 63 18 138 21 165 9 80 12 563 4 640 -5 39 -11 99 -15 135 -19
192 -71 448 -131 650 -19 63 -37 122 -41 130 -3 8 -7 20 -9 25 -7 25 -55 155
-74 200 -11 28 -26 63 -33 80 -35 85 -193 385 -258 487 -180 285 -317 456
-549 688 -145 145 -249 235 -400 349 -52 39 -100 75 -107 81 -7 5 -16 10 -22
10 -5 0 -11 4 -13 8 -3 9 -167 113 -266 170 -104 59 -355 179 -472 225 -319
125 -652 208 -970 242 -30 3 -68 8 -85 11 -34 6 -571 15 -576 9z"/>
</g>
</svg>
